# xmcd
# Track frame offsets:
# 150
# 11932
# 28075
# 39492
# 56130
# 72805
# 90630
# 106340
# 126752
# 145517
# 170477
#
# Disc length: 2476 seconds
# Revision: 0
# Processed by: cddbd v1.5.2PL0 Copyright (c) Steve Scherf et al.
# Submitted via: VisiTrax 2.11.3.279 - For more info visit www.synapsa.com
#
DISCID=9309aa0b
DTITLE=Jose´ Feliciano - Compartments
DYEAR=2010
DGENRE=
TTITLE0=Simpel Song
TTITLE1=Me And Baby Jane
TTITLE2=Don´t Fall
TTITLE3=find Somebody
TTITLE4=Hey Look At The Sun
TTITLE5=Peace of Mind
TTITLE6=Sea Cruise
TTITLE7=Compartments
TTITLE8=Yes We Can Can
TTITLE9=I´m Leavin´
TTITLE10=Things Are Changing
EXTD=
EXTT0=
EXTT1=
EXTT2=
EXTT3=
EXTT4=
EXTT5=
EXTT6=
EXTT7=
EXTT8=
EXTT9=
EXTT10=
PLAYORDER=
